<svg aria-hidden="true" style="position: absolute; width: 0; height: 0; overflow: hidden;" version="1.1" xmlns="http://www.w3.org/2000/svg" xmlns:xlink="http://www.w3.org/1999/xlink">
<defs>
<symbol id="twitter" viewBox="0 0 32 32">
<path fill="#1da1f2" style="fill: var(--color1, #1da1f2)" d="M10.895 28.337c10.385 0 16.065-8.962 16.065-16.734 0-0.255 0-0.508-0.017-0.76 1.105-0.833 2.059-1.863 2.817-3.044-1.030 0.476-2.124 0.788-3.243 0.925 1.179-0.735 2.061-1.891 2.482-3.253-1.108 0.685-2.321 1.168-3.585 1.428-1.75-1.939-4.531-2.413-6.784-1.157s-3.416 3.929-2.838 6.521c-4.54-0.237-8.77-2.471-11.637-6.145-1.499 2.687-0.733 6.125 1.748 7.851-0.899-0.028-1.777-0.28-2.563-0.736v0.075c0.001 2.8 1.895 5.211 4.53 5.765-0.831 0.236-1.703 0.271-2.549 0.101 0.74 2.396 2.859 4.037 5.275 4.084-1.999 1.637-4.469 2.525-7.012 2.523-0.475-0.001-0.941-0.032-1.399-0.091l0.055 0.006c2.582 1.726 5.586 2.642 8.655 2.637z"></path>
</symbol>
<symbol id="linkedin" viewBox="0 0 32 32">
<path style="fill: #0077b7" d="M2.469 0.063c-1.1 0.175-1.95 0.906-2.319 2-0.113 0.331-0.119 0.813-0.119 13.938s0.006 13.606 0.119 13.938c0.306 0.913 0.925 1.544 1.837 1.894l0.356 0.137h27.313l0.356-0.137c0.913-0.35 1.531-0.981 1.837-1.894 0.113-0.331 0.119-0.813 0.119-13.938s-0.006-13.606-0.119-13.938c-0.306-0.913-0.925-1.544-1.837-1.894l-0.356-0.138-13.438-0.006c-7.387-0.006-13.575 0.013-13.75 0.037zM7.969 3.594c1.294 0.275 2.387 1.362 2.65 2.644 0.488 2.35-1.637 4.525-3.963 4.056-1.25-0.256-2.219-1.094-2.631-2.287-0.194-0.556-0.219-1.425-0.056-1.987 0.262-0.925 0.937-1.725 1.806-2.144 0.775-0.375 1.388-0.45 2.194-0.281zM24.375 11.706c1.056 0.275 1.725 0.65 2.394 1.344 1.038 1.063 1.581 2.494 1.8 4.731 0.056 0.569 0.081 2.206 0.087 5.469 0 4.387-0.006 4.669-0.113 4.831-0.063 0.1-0.2 0.231-0.313 0.294-0.188 0.119-0.331 0.125-2.281 0.125-2.269 0-2.313-0.006-2.569-0.363-0.119-0.175-0.125-0.288-0.15-4.769-0.019-3.894-0.038-4.65-0.119-4.994-0.238-0.962-0.613-1.587-1.175-1.925-0.488-0.288-0.756-0.356-1.469-0.35-0.819 0-1.2 0.144-1.744 0.656-0.45 0.419-0.769 0.994-0.994 1.794-0.131 0.469-0.137 0.606-0.169 4.95-0.031 4.175-0.038 4.481-0.144 4.637-0.238 0.344-0.35 0.363-2.525 0.363-2.225 0-2.3-0.012-2.531-0.444-0.106-0.2-0.113-0.575-0.113-7.919 0-8.55-0.025-8.006 0.4-8.269 0.181-0.113 0.35-0.119 2.256-0.119 1.937 0 2.075 0.006 2.263 0.125 0.325 0.194 0.394 0.4 0.394 1.2l0.006 0.706 0.137-0.188c0.462-0.637 1.262-1.287 1.931-1.581 0.881-0.381 1.694-0.512 3.050-0.488 0.919 0.019 1.188 0.050 1.688 0.181zM9.506 11.894c0.119 0.075 0.262 0.238 0.325 0.356 0.1 0.206 0.106 0.681 0.094 7.95-0.019 7.706-0.019 7.731-0.15 7.906-0.281 0.381-0.363 0.394-2.513 0.394-2.112 0-2.131 0-2.45-0.344l-0.156-0.169-0.019-7.813c-0.013-7.537-0.013-7.825 0.1-8 0.069-0.1 0.2-0.238 0.3-0.306 0.169-0.113 0.319-0.119 2.219-0.119 2.012 0 2.037 0 2.25 0.144z"></path>
</symbol>
<symbol id="cart" viewBox="0 0 32 32">
<path d="M1.156 3.156c-0.1 0.094-0.156 0.225-0.156 0.344s0.056 0.25 0.156 0.344l0.15 0.156h3.294l1.894 8.037c1.038 4.419 1.881 8.044 1.869 8.056-0.012 0.006-0.131 0.069-0.269 0.131-0.338 0.156-0.719 0.55-0.906 0.931-0.15 0.294-0.156 0.375-0.156 1.344v1.031l0.213 0.394c0.119 0.219 0.3 0.462 0.4 0.55 0.275 0.231 0.731 0.444 1.050 0.494l0.281 0.044-0.225 0.444c-0.206 0.413-0.219 0.481-0.219 1.044 0 0.569 0.012 0.625 0.231 1.075 0.281 0.569 0.644 0.919 1.225 1.194 0.381 0.181 0.475 0.2 1.012 0.2s0.631-0.019 1.012-0.2c0.581-0.275 0.944-0.625 1.225-1.194 0.219-0.45 0.231-0.506 0.231-1.075 0-0.563-0.012-0.631-0.225-1.050l-0.219-0.45h9.95l-0.219 0.45c-0.212 0.419-0.225 0.488-0.225 1.050 0 0.569 0.012 0.625 0.231 1.075 0.281 0.569 0.644 0.919 1.225 1.194 0.381 0.181 0.475 0.2 1.019 0.2 0.563 0 0.619-0.012 1.069-0.231 0.569-0.281 0.919-0.644 1.194-1.225 0.181-0.381 0.2-0.475 0.2-1.019 0-0.556-0.012-0.625-0.225-1.044l-0.219-0.45h1.081c1.069 0 1.087 0 1.238-0.156 0.188-0.181 0.2-0.462 0.038-0.663l-0.119-0.15-20.619-0.063-0.231-0.181c-0.363-0.275-0.425-0.494-0.4-1.387 0.019-0.831 0.063-0.956 0.45-1.238 0.169-0.131 0.194-0.131 9.975-0.163 9.087-0.031 9.819-0.038 9.913-0.137 0.075-0.075 0.475-1.856 1.375-6.188 0.7-3.344 1.269-6.144 1.275-6.225 0-0.081-0.069-0.213-0.156-0.294l-0.15-0.156h-24.119l-0.225-0.956c-0.125-0.519-0.375-1.594-0.563-2.388-0.275-1.15-0.369-1.456-0.475-1.544-0.125-0.1-0.313-0.112-2.075-0.112h-1.931l-0.15 0.156zM10.563 9.050c0 0.075 0.181 1.512 0.219 1.744l0.037 0.206h-3.544l-0.206-0.894c-0.112-0.488-0.219-0.938-0.231-1-0.031-0.1 0.088-0.106 1.844-0.106 1.037 0 1.881 0.025 1.881 0.050zM15.525 9.262c0.019 0.15 0.044 0.6 0.056 1l0.019 0.738h-1.894c-1.044 0-1.894-0.006-1.894-0.019 0-0.006-0.056-0.45-0.125-0.981s-0.125-0.975-0.125-0.988c0-0.006 0.881-0.012 1.963-0.012h1.969l0.031 0.262zM20.456 9.731c-0.012 0.406-0.038 0.856-0.056 1l-0.031 0.269h-3.738l-0.031-0.269c-0.019-0.144-0.044-0.594-0.056-1l-0.019-0.731h3.95l-0.019 0.731zM25.406 9.2c-0.038 0.238-0.219 1.675-0.219 1.75 0 0.025-0.85 0.050-1.894 0.050h-1.894l0.019-0.738c0.012-0.4 0.038-0.85 0.056-1l0.031-0.262h3.938l-0.038 0.2zM29.856 9.137c-0.019 0.081-0.113 0.531-0.206 1l-0.181 0.863h-3.288l0.038-0.206c0.038-0.231 0.219-1.669 0.219-1.744 0-0.025 0.775-0.050 1.725-0.050h1.725l-0.031 0.137zM10.938 12.050c0 0.075 0.181 1.512 0.225 1.75l0.031 0.2-1.613-0.012-1.612-0.019-0.075-0.344c-0.044-0.188-0.144-0.631-0.225-0.988l-0.156-0.637h1.713c0.944 0 1.713 0.025 1.713 0.050zM15.65 12.262c0.019 0.15 0.044 0.6 0.056 1l0.019 0.738h-1.769c-0.975 0-1.769-0.006-1.769-0.019 0-0.006-0.056-0.45-0.125-0.981s-0.125-0.975-0.125-0.988c0-0.006 0.825-0.012 1.838-0.012h1.844l0.031 0.262zM20.331 12.731c-0.012 0.406-0.038 0.856-0.056 1l-0.031 0.269h-3.488l-0.031-0.269c-0.019-0.144-0.044-0.594-0.056-1l-0.019-0.731h3.7l-0.019 0.731zM25.031 12.2c-0.038 0.238-0.219 1.675-0.219 1.75 0 0.025-0.794 0.050-1.769 0.050h-1.769l0.019-0.738c0.012-0.4 0.038-0.85 0.056-1l0.031-0.262h3.688l-0.038 0.2zM29.231 12.137c-0.019 0.081-0.113 0.531-0.206 1l-0.181 0.863h-3.038l0.038-0.206c0.038-0.231 0.219-1.669 0.219-1.744 0-0.025 0.719-0.050 1.6-0.050h1.6l-0.031 0.137zM11.313 15.050c0 0.075 0.181 1.512 0.219 1.744l0.037 0.206h-2.881l-0.031-0.144c-0.019-0.075-0.119-0.494-0.219-0.931-0.106-0.438-0.188-0.825-0.188-0.856 0-0.050 0.5-0.069 1.531-0.069 0.844 0 1.531 0.025 1.531 0.050zM15.775 15.262c0.019 0.15 0.044 0.6 0.056 1l0.019 0.738h-1.644c-0.906 0-1.644-0.006-1.644-0.019 0-0.006-0.056-0.45-0.125-0.981s-0.125-0.975-0.125-0.988c0-0.006 0.769-0.012 1.713-0.012h1.719l0.031 0.262zM20.206 15.731c-0.012 0.406-0.038 0.856-0.056 1l-0.031 0.269h-3.238l-0.031-0.269c-0.019-0.144-0.044-0.594-0.056-1l-0.019-0.731h3.45l-0.019 0.731zM24.656 15.2c-0.038 0.238-0.219 1.675-0.219 1.75 0 0.025-0.738 0.050-1.644 0.050h-1.644l0.019-0.738c0.012-0.4 0.038-0.85 0.056-1l0.031-0.262h3.438l-0.038 0.2zM28.606 15.137c-0.019 0.081-0.113 0.531-0.206 1l-0.181 0.863h-2.788l0.038-0.206c0.038-0.231 0.219-1.669 0.219-1.744 0-0.025 0.663-0.050 1.475-0.050h1.475l-0.031 0.137zM11.688 18.050c0 0.075 0.181 1.512 0.219 1.744l0.037 0.206h-2.55l-0.206-0.894c-0.113-0.488-0.219-0.938-0.238-1-0.025-0.1 0.069-0.106 1.356-0.106 0.756 0 1.381 0.025 1.381 0.050zM15.9 18.262c0.019 0.15 0.044 0.6 0.056 1l0.019 0.738h-1.519c-0.838 0-1.519-0.006-1.519-0.019 0-0.006-0.056-0.45-0.125-0.981s-0.125-0.975-0.125-0.988c0-0.006 0.713-0.012 1.588-0.012h1.594l0.031 0.262zM20.081 18.731c-0.012 0.406-0.038 0.856-0.056 1l-0.031 0.269h-2.988l-0.031-0.269c-0.019-0.144-0.044-0.594-0.056-1l-0.019-0.731h3.2l-0.019 0.731zM24.281 18.2c-0.038 0.238-0.219 1.675-0.219 1.75 0 0.025-0.681 0.050-1.519 0.050h-1.519l0.019-0.738c0.012-0.4 0.038-0.85 0.056-1l0.031-0.262h3.188l-0.038 0.2zM27.981 18.137c-0.019 0.081-0.113 0.531-0.206 1l-0.181 0.863h-2.538l0.038-0.206c0.038-0.231 0.219-1.669 0.219-1.744 0-0.025 0.606-0.050 1.35-0.050h1.35l-0.031 0.137zM11.463 25.075c0.537 0.163 1.037 0.85 1.037 1.425 0 0.775-0.725 1.5-1.5 1.5s-1.5-0.725-1.5-1.5c0-0.394 0.144-0.712 0.469-1.031 0.438-0.444 0.906-0.563 1.494-0.394zM25.462 25.075c0.538 0.163 1.038 0.85 1.038 1.425 0 0.775-0.725 1.5-1.5 1.5s-1.5-0.725-1.5-1.5c0-0.394 0.144-0.712 0.469-1.031 0.438-0.444 0.906-0.563 1.494-0.394z"></path>
<path d="M10.656 26.156c-0.313 0.306-0.094 0.844 0.344 0.844 0.119 0 0.25-0.056 0.344-0.156 0.1-0.094 0.156-0.225 0.156-0.344s-0.056-0.25-0.156-0.344c-0.094-0.1-0.225-0.156-0.344-0.156s-0.25 0.056-0.344 0.156zM24.656 26.156c-0.313 0.306-0.094 0.844 0.344 0.844 0.256 0 0.5-0.244 0.5-0.5s-0.244-0.5-0.5-0.5c-0.119 0-0.25 0.056-0.344 0.156z"></path>
</symbol>
</defs></svg>